Coordinates
version=1
nRows=24
nColumns=38
inDegrees=no

Units are S.I. units (second, meters, Newtons, ...)
If the header above contains a line with 'inDegrees', this indicates whether rotational values are in degrees (yes) or radians (no).

endheader
time	pelvis_tilt	pelvis_list	pelvis_rotation	pelvis_tx	pelvis_ty	pelvis_tz	hip_flexion_r	hip_adduction_r	hip_rotation_r	knee_angle_r	ankle_angle_r	subtalar_angle_r	mtp_angle_r	hip_flexion_l	hip_adduction_l	hip_rotation_l	knee_angle_l	ankle_angle_l	subtalar_angle_l	mtp_angle_l	lumbar_extension	lumbar_bending	lumbar_rotation	arm_flex_r	arm_add_r	arm_rot_r	elbow_flex_r	pro_sup_r	wrist_flex_r	wrist_dev_r	arm_flex_l	arm_add_l	arm_rot_l	elbow_flex_l	pro_sup_l	wrist_flex_l	wrist_dev_l
0.46	-0.987175	1.50652	-0.86562	0.820071	0.842987	0.936362	0.0930998	0.0160475	0.320566	1.16736	0.20529	0	0	0.216615	-0.0385047	0.0459796	0.337347	0.523599	0	0	-0.0376487	0.0758121	0.197964	0.223411	-0.412947	0.094197	1.17169	0.989308	0	0	0.147053	-0.376309	0.022342	1.25471	0.881847	0	0
0.47	-1.0617	1.50751	-0.785772	0.821931	0.83185	0.938668	0.117587	0.0168292	0.307834	1.16006	0.216165	0	0	0.201452	-0.0333489	0.0672867	0.322676	0.523599	0	0	-0.0352433	0.0790053	0.190532	0.225323	-0.412216	0.0958623	1.1692	0.988737	0	0	0.149443	-0.37685	0.0240385	1.25104	0.881594	0	0
0.48	-1.17082	1.50686	-0.668998	0.823982	0.820772	0.940828	0.142464	0.0198632	0.291776	1.14911	0.227586	0	0	0.186846	-0.0309874	0.0859495	0.305986	0.523599	0	0	-0.0309149	0.0848215	0.18059	0.227567	-0.411348	0.097472	1.16538	0.988244	0	0	0.151424	-0.377121	0.0261534	1.24715	0.881442	0	0
0.49	-1.2927	1.50417	-0.538275	0.826091	0.809744	0.942892	0.166963	0.0245739	0.273582	1.13476	0.239614	0	0	0.171973	-0.031188	0.099547	0.287272	0.523599	0	0	-0.0258099	0.0923566	0.169073	0.230045	-0.410145	0.0983087	1.16136	0.988517	0	0	0.152625	-0.376909	0.0273293	1.24409	0.881428	0	0
0.5	-1.431	1.49247	-0.393236	0.827843	0.799284	0.945422	0.180645	0.0566442	0.292832	1.10973	0.249769	0	0	0.156637	-0.0424118	0.102038	0.268994	0.523599	0	0	-0.0235624	0.108946	0.159437	0.233815	-0.409751	0.0988354	1.1567	0.98923	0	0	0.154321	-0.373941	0.0260645	1.23975	0.882164	0	0
0.51	-1.49718	1.49313	-0.315665	0.829968	0.787847	0.946812	0.212989	0.038403	0.235077	1.09734	0.258754	0	0	0.141466	-0.0373102	0.102893	0.24859	0.523599	0	0	-0.0167134	0.109847	0.145832	0.233924	-0.408588	0.0989982	1.15563	0.989586	0	0	0.154043	-0.374954	0.0259103	1.24037	0.88277	0	0
0.52	-1.56929	1.48651	-0.232616	0.83187	0.776993	0.948609	0.234748	0.0451789	0.213492	1.07506	0.265518	0	0	0.126356	-0.0407104	0.101309	0.229712	0.523599	0	0	-0.0128751	0.118047	0.133095	0.234761	-0.408549	0.0988062	1.15501	0.990002	0	0	0.154936	-0.374563	0.0255221	1.24001	0.88314	0	0
0.53	-1.62088	1.4796	-0.171336	0.833489	0.766266	0.950319	0.255594	0.0527997	0.194518	1.05094	0.269269	0	0	0.110997	-0.0445146	0.0957162	0.212252	0.523599	0	0	-0.010317	0.125683	0.122554	0.234563	-0.40945	0.098404	1.15636	0.989854	0	0	0.156367	-0.374646	0.0258716	1.24068	0.88314	0	0
0.54	-1.65934	1.47315	-0.123989	0.834872	0.755599	0.951862	0.276024	0.0603389	0.17655	1.02574	0.270768	0	0	0.0956648	-0.0480034	0.0889561	0.196151	0.523599	0	0	-0.0083077	0.132233	0.113646	0.233334	-0.411056	0.0977275	1.1596	0.989035	0	0	0.15813	-0.375511	0.027288	1.24252	0.882521	0	0
0.55	-1.69811	1.46057	-0.0808183	0.835719	0.745595	0.953682	0.288489	0.093287	0.202203	0.989814	0.270306	0	0	0.0817388	-0.0595064	0.077617	0.182842	0.523599	0	0	-0.00810848	0.145562	0.109666	0.233189	-0.413606	0.0971352	1.16233	0.987831	0	0	0.161261	-0.374489	0.0283482	1.24271	0.88208	0	0
0.56	-1.72452	1.45531	-0.0484637	0.836601	0.735043	0.954878	0.309001	0.101533	0.190254	0.962913	0.27127	0	0	0.0673655	-0.0623449	0.0671005	0.169673	0.523599	0	0	-0.00603602	0.150211	0.104773	0.231218	-0.415487	0.0966359	1.16594	0.986246	0	0	0.16349	-0.375697	0.0303347	1.24539	0.881741	0	0
0.57	-1.74785	1.45071	-0.0186085	0.837508	0.724469	0.955888	0.329452	0.108551	0.177474	0.936079	0.273233	0	0	0.0534656	-0.0643498	0.0594648	0.15768	0.523599	0	0	-0.00359138	0.154094	0.0992164	0.229251	-0.417168	0.0964223	1.16926	0.983947	0	0	0.165092	-0.377319	0.0321589	1.24869	0.881295	0	0
0.58	-1.77123	1.44646	0.0109916	0.838358	0.713887	0.956688	0.350337	0.114996	0.164876	0.910059	0.276498	0	0	0.0398765	-0.065983	0.0538034	0.146059	0.523599	0	0	-0.000573809	0.15766	0.0937953	0.227212	-0.418645	0.0963628	1.17228	0.980848	0	0	0.16623	-0.378686	0.0333958	1.25198	0.880879	0	0
0.59	-1.79469	1.44223	0.0398902	0.839105	0.703365	0.957296	0.371714	0.121459	0.152669	0.88476	0.280941	0	0	0.0266974	-0.0676429	0.0493139	0.135097	0.523599	0	0	0.00276191	0.161262	0.0889086	0.225518	-0.419779	0.0961612	1.17493	0.977955	0	0	0.167224	-0.379622	0.0338868	1.25488	0.880603	0	0
0.6	-1.8186	1.43765	0.0683172	0.839761	0.692941	0.957706	0.393533	0.128385	0.140753	0.859733	0.285657	0	0	0.0142213	-0.0696489	0.0459237	0.125089	0.523599	0	0	0.00638065	0.165392	0.084534	0.224694	-0.420551	0.0961083	1.17698	0.975644	0	0	0.168141	-0.38016	0.033859	1.25719	0.880747	0	0
0.61	-1.84174	1.4326	0.0953569	0.840376	0.682586	0.957924	0.415295	0.135579	0.12888	0.834512	0.288386	0	0	0.002417	-0.0720191	0.04355	0.116076	0.523599	0	0	0.0102803	0.170286	0.0804539	0.224766	-0.421079	0.0962212	1.17826	0.973598	0	0	0.168992	-0.380531	0.0337851	1.25874	0.881313	0	0
0.62	-1.86253	1.42723	0.119873	0.841002	0.672292	0.957953	0.436703	0.142665	0.116473	0.808927	0.288876	0	0	-0.00911879	-0.0745796	0.0429059	0.107708	0.523599	0	0	0.0141774	0.175794	0.0762352	0.225798	-0.421543	0.0967831	1.17872	0.972039	0	0	0.169888	-0.380791	0.0337358	1.25966	0.882533	0	0
0.63	-1.8804	1.42172	0.141535	0.841664	0.662026	0.957833	0.457487	0.149194	0.102626	0.782471	0.288198	0	0	-0.0204379	-0.0772718	0.0434483	0.100195	0.523599	0	0	0.017569	0.18175	0.0716231	0.227636	-0.422039	0.0976571	1.17907	0.971135	0	0	0.170793	-0.380514	0.0327827	1.2603	0.884163	0	0
0.64	-1.89437	1.41616	0.15949	0.842365	0.651797	0.957586	0.477127	0.15501	0.0869612	0.754821	0.286388	0	0	-0.0314889	-0.0801554	0.0450073	0.0942718	0.523599	0	0	0.0202982	0.18796	0.0666211	0.230411	-0.422322	0.099109	1.17859	0.970373	0	0	0.171898	-0.379749	0.0311093	1.26032	0.886737	0	0
0.65	-1.90558	1.41071	0.175075	0.843115	0.641558	0.957193	0.495867	0.159928	0.0693939	0.726333	0.283709	0	0	-0.042073	-0.0830324	0.0468166	0.0898699	0.523599	0	0	0.0226825	0.194229	0.0613075	0.233775	-0.422597	0.100713	1.17763	0.970028	0	0	0.173659	-0.377889	0.0284496	1.25915	0.890505	0	0
0.66	-1.91277	1.40574	0.187003	0.843923	0.631303	0.956703	0.513182	0.163875	0.0503011	0.697136	0.280925	0	0	-0.0528426	-0.0855774	0.04745	0.0863228	0.523599	0	0	0.0243559	0.200123	0.0561404	0.237011	-0.422982	0.101404	1.17689	0.970554	0	0	0.176399	-0.375225	0.0254408	1.25692	0.895558	0	0
0.67	-1.91562	1.40151	0.194848	0.844757	0.620999	0.956122	0.528863	0.166755	0.0297025	0.667482	0.278738	0	0	-0.06428	-0.0874979	0.0465496	0.0829973	0.523599	0	0	0.025119	0.20534	0.0515344	0.240114	-0.423086	0.100459	1.17586	0.971705	0	0	0.18039	-0.372092	0.0234944	1.25368	0.901395	0	0
0.68	-1.91569	1.39795	0.200321	0.845618	0.610635	0.955418	0.543119	0.168636	0.00755802	0.637208	0.277303	0	0	-0.0760906	-0.0888529	0.0455676	0.0803329	0.523599	0	0	0.0252079	0.209816	0.0475752	0.24289	-0.422846	0.097934	1.17429	0.972703	0	0	0.185436	-0.368499	0.0228689	1.25009	0.907043	0	0
0.69	-1.91419	1.39489	0.204724	0.846497	0.600233	0.954578	0.555964	0.169871	-0.0149095	0.605947	0.276899	0	0	-0.0881928	-0.0897903	0.0449407	0.0777025	0.523599	0	0	0.0247848	0.21373	0.0437566	0.246172	-0.422116	0.0946135	1.17139	0.973751	0	0	0.190121	-0.364685	0.0217761	1.24767	0.912621	0	0
